<?xml version="1.0" encoding="utf-8"?>
<!-- Generator: Adobe Illustrator 16.0.0, SVG Export Plug-In . SVG Version: 6.00 Build 0)  -->
<!DOCTYPE svg PUBLIC "-//W3C//DTD SVG 1.1//EN" "http://www.w3.org/Graphics/SVG/1.1/DTD/svg11.dtd">
<svg version="1.1" id="Layer_1" xmlns="http://www.w3.org/2000/svg" xmlns:xlink="http://www.w3.org/1999/xlink" x="0px" y="0px"
	 width="600px" height="600px" viewBox="0 0 600 600" enable-background="new 0 0 600 600" xml:space="preserve">
<g>
	<linearGradient id="SVGID_1_" gradientUnits="userSpaceOnUse" x1="523.1924" y1="463.002" x2="76.808" y2="136.9991">
		<stop  offset="0" style="stop-color:#2A52F0"/>
		<stop  offset="0.2173" style="stop-color:#2A69F0"/>
		<stop  offset="0.4992" style="stop-color:#2A80F0"/>
		<stop  offset="0.766" style="stop-color:#2A8DF0"/>
		<stop  offset="1" style="stop-color:#2A92F0"/>
	</linearGradient>
	<path fill="url(#SVGID_1_)" d="M560.101,236.317c-3.734,5.413-7.184,11.85-10.354,19.309c-0.936,2.239-1.775,4.478-2.52,6.716
		c-0.748,2.239-1.494,4.478-2.238,6.716c-0.748,2.239-1.496,4.525-2.238,6.856c-0.748,2.335-1.588,4.714-2.52,7.136
		c-0.748,0.936-1.398,2.146-1.959,3.638c-0.559,1.496-1.215,2.707-1.959,3.638c-0.559,0.748-1.027,2.055-1.398,3.917
		c-0.188,1.12-0.84,2.055-1.959,2.798c-1.307,3.546-2.707,6.952-4.197,10.215c-1.496,3.266-2.986,6.484-4.479,9.654
		c-3.174,6.344-5.691,13.152-7.555,20.428c-0.936,0.936-1.496,1.959-1.68,3.078c-0.188,1.119-0.748,2.146-1.68,3.078
		c0.373,0.377,0.373,2.146,0,5.316c-0.375,3.176-0.936,5.506-1.678,6.996c-2.428,4.666-4.197,7.836-5.316,9.516
		c-0.748,1.119-1.4,2.287-1.959,3.498c-0.561,1.215-1.121,2.475-1.68,3.777c-3.918,7.465-7.652,15.672-11.193,24.627
		c-3.359,8.771-7.094,17.35-11.193,25.744c-2.24,3.734-4.199,7.557-5.877,11.475c-1.68,3.918-3.455,8.115-5.318,12.592
		c0,2.428-0.559,4.666-1.678,6.717c-0.936,1.68-1.867,3.734-2.799,6.156c-1.68,3.918-2.707,7.092-3.078,9.516
		c-0.561,2.986-1.775,5.973-3.639,8.955l-3.357,4.197c-0.748,0.936-1.68,2.334-2.799,4.197c-0.559,0.936-1.027,2.52-1.398,4.758
		c-0.377,2.238-0.84,3.826-1.4,4.756c-0.748,2.24-2.055,4.479-3.918,6.717c-1.867,2.238-3.732,4.289-5.596,6.156
		c-2.055,2.051-3.455,3.918-4.197,5.598c-0.748,1.68-2.148,3.541-4.199,5.596c-2.426,1.121-4.477,2.332-6.156,3.639
		c-1.494,1.119-3.545,2.143-6.156,3.078c-5.037,2.611-9.703,4.479-13.992,5.598c-3.734,0.932-6.064,1.582-6.996,1.959
		c-1.307,0.559-2.895,0.84-4.756,0.84c-2.24,0-4.295-0.189-6.158-0.561c-1.867-0.377-3.918-0.561-6.156-0.561
		c-3.174,1.121-6.156,1.305-8.955,0.561l-8.955-2.238h-4.756c-1.309,0-2.895-0.188-4.758-0.561
		c-5.785-1.119-11.006-3.637-15.672-7.555c-4.66-3.734-9.887-6.064-15.67-6.996c-8.58-5.598-15.764-13.061-21.549-22.389
		c-5.78-9.326-10.726-19.771-14.832-31.342c-1.862-6.527-2.238-13.523-1.119-20.988c0.56-3.729,1.027-7.416,1.399-11.053
		c0.376-3.639,0.656-7.32,0.839-11.055c0.936-4.85,1.496-9.326,1.679-13.432c0.188-3.543,0.936-7.648,2.239-12.314
		c0.747-2.609,1.587-5.129,2.519-7.555c0.936-2.422,1.775-4.57,2.519-6.436c1.308-2.051,2.985-4.102,5.036-6.158
		c2.057-2.051,3.734-4.289,5.037-6.715c2.428-1.492,5.414-2.143,8.955-1.959c3.734,0.375,7.465,0.096,11.195-0.84
		c1.307-0.371,2.613-0.791,3.916-1.26c1.309-0.463,2.615-1.07,3.918-1.818c2.428-1.303,4.854-1.4,7.277-0.279
		c0.746,2.986,0.936,6.813,0.559,11.473c-0.371,4.666-0.742,9.051-1.119,13.152c0,4.854-0.184,8.303-0.561,10.354
		c-0.371,2.057-0.93,4.016-1.678,5.877c-0.371,1.867-0.791,3.826-1.26,5.877c-0.463,2.055-0.979,4.105-1.539,6.156
		c-0.561,2.057-1.07,4.197-1.539,6.438c-0.463,2.238-0.883,4.477-1.26,6.715c0,1.309,0,2.568,0,3.779
		c0,1.215-0.092,2.475-0.279,3.777c-0.184,1.307-0.279,2.566-0.279,3.777c0,1.217,0,2.475,0,3.777c0,1.496-0.045,3.08-0.141,4.758
		c-0.092,1.68-0.232,3.455-0.42,5.318c-0.184,3.545,0.377,6.902,1.68,10.074c0.936,2.238,2.426,4.756,4.477,7.555
		c1.867,2.615,3.359,5.506,4.479,8.676c2.986,1.867,4.385,3.078,4.197,3.637c-0.184,0.377-0.092,1.027,0.279,1.959
		c1.303,2.799,3.359,4.666,6.156,5.598c3.543,2.238,8.115,3.174,13.713,2.799c5.781-0.373,10.727,0,14.832,1.119
		c6.9-1.119,12.873-3.17,17.91-6.156c0.742-0.373,1.539-0.744,2.379-1.119c0.838-0.373,1.631-0.744,2.377-1.121
		c1.68-0.93,3.078-2.051,4.199-3.357c1.303-2.422,2.33-4.66,3.078-6.717c0.742-2.422,1.77-5.037,3.078-7.834
		c1.119-2.611,2.238-6.158,3.357-10.635s1.863-8.02,2.238-10.635c2.051-3.541,3.871-7.18,5.457-10.912
		c1.584-3.73,3.031-7.557,4.338-11.475l7.557-22.947c1.49-4.477,2.98-8.674,4.477-12.592c1.49-3.918,3.17-7.928,5.037-12.033
		c1.49-4.102,2.982-8.115,4.479-12.033c1.49-3.918,3.541-7.557,6.156-10.914c1.119-5.969,2.797-11.193,5.037-15.672l6.715-13.432
		c2.611-5.969,5.41-11.566,8.396-16.791c1.678-2.799,3.309-5.549,4.896-8.255c1.584-2.702,3.031-5.361,4.338-7.976
		c1.49-2.61,2.982-5.221,4.477-7.835c1.492-2.61,3.08-5.221,4.758-7.835c2.238-5.969,5.316-12.033,9.234-18.19
		c3.543-5.78,6.438-11.845,8.676-18.189c2.051-5.409,3.73-10.446,5.037-15.112c1.49-4.849,3.73-9.326,6.717-13.432
		c1.49-2.982,2.842-5.877,4.057-8.675c1.211-2.798,2.283-5.409,3.219-7.835c0.932-2.61,2.002-5.129,3.219-7.556
		c1.211-2.422,2.563-4.849,4.057-7.276c0.373-1.863,0.84-3.542,1.4-5.037c0.559-1.491,1.211-3.17,1.959-5.037
		c-3.176,0.936-5.973,2.427-8.396,4.478c-2.426,2.238-5.596,3.917-9.514,5.037c-2.986,1.867-6.156,4.014-9.516,6.436
		c-3.357,2.427-6.156,4.945-8.395,7.556c-1.119,4.478-2.238,7.276-3.357,8.396c-0.748,0.748-1.867,2.055-3.359,3.918
		c-1.494,0.188-3.545,0.656-6.156,1.399c-2.615,0.748-4.666,1.216-6.156,1.399c-2.238-0.932-3.639-2.051-4.197-3.358
		c-0.561-1.491-1.4-3.17-2.52-5.037c-1.867-3.17-2.334-5.78-1.398-7.835c0.932-2.051,1.771-3.73,2.518-5.037
		c0.561-0.743,1.4-1.679,2.52-2.798c1.119-1.12,1.771-2.051,1.959-2.798c5.037-4.849,10.074-8.955,15.111-12.313
		c5.408-3.729,10.445-7.647,15.111-11.753c1.119-1.12,2.238-2.239,3.357-3.358c1.119-1.119,2.24-2.331,3.359-3.638
		c1.119-1.303,2.238-2.471,3.357-3.498c0.495-0.453,0.99-0.894,1.486-1.329C479.773,72.139,395.552,23.642,299.999,23.642
		c-152.628,0-276.357,123.73-276.357,276.359c0,30.019,4.805,58.912,13.656,85.973c1.51-3.737,3.115-7.357,4.816-10.855
		c3.358-6.9,6.899-13.896,10.634-20.988c-1.867-0.744-2.798-2.52-2.798-5.318c0-2.797-0.936-4.756-2.798-5.875
		c-0.936-8.396-3.734-14.365-8.396-17.91c1.863-2.424,2.798-4.85,2.798-7.277c1.679-1.678,4.29-3.17,7.836-4.477
		c0.743-0.371,1.443-0.744,2.099-1.119c0.651-0.371,1.259-0.652,1.819-0.84c1.491-0.744,2.982-1.211,4.478-1.398l8.675-0.84
		c1.491-0.184,2.938-0.371,4.337-0.561c1.399-0.184,2.842-0.463,4.337-0.84c1.303-2.051,2.471-4.148,3.498-6.295
		c1.023-2.143,1.911-4.338,2.659-6.577c1.491-4.477,3.729-8.395,6.716-11.753c0.372-1.12,0.931-2.239,1.679-3.358
		c0.744-0.931,0.932-2.051,0.56-3.358c2.798-3.17,5.409-7.276,7.835-12.313c2.239-4.661,4.849-8.955,7.835-12.873
		c2.61-6.156,5.688-11.657,9.235-16.51c3.17-4.478,6.437-10.167,9.794-17.071c3.358-4.101,6.249-9.514,8.675-16.23
		c2.422-6.716,4.569-12.873,6.436-18.47c0.744-1.679,1.12-3.262,1.12-4.757c0-1.491,0.372-2.89,1.119-4.198
		c0.743-1.679,1.863-3.729,3.358-6.156c0.744-1.12,1.443-2.239,2.099-3.358c0.651-1.119,1.259-2.239,1.819-3.358
		c1.491-2.61,2.798-5.037,3.918-7.276c1.119-2.239,2.051-4.849,2.798-7.835c-1.12-2.239-2.895-2.702-5.317-1.399
		c-1.308,0.748-2.615,1.447-3.918,2.099c-1.307,0.656-2.707,1.356-4.198,2.099c-5.037,2.615-10.262,5.785-15.671,9.515
		c-8.212,4.106-15.907,8.491-23.087,13.152c-7.184,4.666-13.852,9.611-20.009,14.832c-1.679,0.188-3.546,0.748-5.597,1.679
		c-1.867,0.748-4.106,1.308-6.716,1.679l-4.198-3.358c-0.188-0.372-0.468-0.931-0.839-1.679c1.119-1.12,2.982-2.239,5.597-3.358
		c2.61-1.119,3.918-2.61,3.918-4.478c-0.376-7.088,1.583-12.593,5.876-16.51c4.29-3.918,8.487-7.74,12.593-11.474
		c2.799-1.679,5.409-3.218,7.836-4.618c2.422-1.399,4.661-2.562,6.716-3.498c4.29-2.05,8.208-4.569,11.753-7.556
		c2.422-0.931,4.801-1.911,7.136-2.938c2.331-1.023,4.709-2.191,7.136-3.498c2.422-1.303,4.801-2.519,7.136-3.638
		c2.331-1.119,4.709-2.239,7.136-3.358c1.679-0.744,3.45-1.863,5.317-3.358c0.932-0.743,1.819-1.491,2.659-2.239
		c0.839-0.743,1.723-1.491,2.659-2.238c4.477-2.982,9.234-5.969,14.271-8.955c5.038-2.982,10.167-5.969,15.392-8.955
		c2.798-0.743,4.381-1.303,4.757-1.679c0.743-0.743,1.211-1.119,1.399-1.119c5.781-1.863,10.446-3.918,13.992-6.157
		c1.491-0.56,2.982-1.163,4.478-1.819c1.491-0.651,2.89-1.351,4.198-2.099c2.798-1.491,5.876-2.051,9.235-1.679
		c2.982,0,5.78,1.308,8.395,3.918c2.61,2.615,2.422,5.225-0.56,7.835c2.982,2.986,4.478,7.092,4.478,12.313
		c0,5.785,0.372,11.01,1.119,15.671c0,1.307,0.184,3.078,0.56,5.317c0.372,1.679,0.372,3.266,0,4.757
		c-0.188,1.307-0.839,3.078-1.958,5.317c-0.936,1.867-1.399,3.454-1.399,4.757c-1.307,1.867-2.427,3.826-3.358,5.876
		c-0.748,1.867-1.867,3.826-3.358,5.877c-0.936,3.546-2.239,6.156-3.917,7.835c-1.867,1.867-3.358,3.918-4.478,6.157
		c-2.798,2.055-5.413,4.477-7.835,7.276c-1.496,0-2.335,0.656-2.519,1.958c-0.188,1.308-0.656,2.335-1.399,3.079
		c-7.464,1.867-13.712,6.064-18.75,12.593c-5.037,6.533-9.982,13.34-14.832,20.428c-5.973,3.918-11.194,8.396-15.671,13.433
		c-0.748,0.936-1.447,1.915-2.099,2.938c-0.656,1.027-1.167,2.195-1.539,3.498c-0.376,1.307-0.888,2.519-1.539,3.638
		c-0.656,1.12-1.355,2.239-2.099,3.358c-1.495,2.427-3.034,4.993-4.617,7.695c-1.587,2.707-3.218,5.645-4.897,8.815
		c-1.679,2.987-3.314,5.925-4.897,8.815c-1.587,2.895-3.126,5.645-4.617,8.255c-0.936,2.427-1.867,4.478-2.799,6.157
		c-0.936,1.496-1.867,3.734-2.798,6.716l-4.478,8.395c-1.119,1.867-2.055,4.294-2.798,7.276c6.34,0,12.685-0.372,19.029-1.119
		c6.34-0.744,12.685-1.491,19.029-2.239c9.515,0.748,18.562-0.28,27.145-3.078c8.767-2.982,17.442-4.569,26.025-4.757
		c1.491-0.932,2.798-1.211,3.918-0.84c0.743,0.188,2.051,0.096,3.917-0.28c8.208-0.372,16.511-0.651,24.906-0.839
		c8.395-0.184,17.07,0.096,26.025,0.839c1.491-0.743,2.703-1.863,3.638-3.358c0.931-1.491,1.771-2.982,2.519-4.478
		c0.931-2.239,1.959-3.918,3.078-5.037c0.744-0.743,1.351-1.491,1.819-2.239c0.463-0.743,0.883-1.491,1.259-2.239
		c1.12-2.982,2.239-5.037,3.358-6.157c1.119-1.119,2.051-2.61,2.798-4.477c2.423-4.849,3.821-7.556,4.198-8.116
		c0.371-0.372,0.699-0.883,0.979-1.539c0.279-0.651,0.604-1.351,0.98-2.099l16.23-27.425c0.742-0.931,1.398-2.143,1.959-3.638
		c0.742-1.863,1.398-3.262,1.959-4.198c0.559-0.931,1.021-2.61,1.398-5.037c0.371-2.051,1.398-3.73,3.078-5.037
		c0.744-1.863,1.584-3.778,2.52-5.737c0.932-1.959,1.861-3.961,2.799-6.017l5.875-12.313c0.932-1.863,1.863-3.682,2.799-5.457
		c0.932-1.771,1.863-3.59,2.799-5.457l5.598-10.914c0.371-0.932,0.742-1.863,1.119-2.798c0.371-0.932,0.742-1.771,1.119-2.519
		c0.371-0.932,0.742-1.819,1.119-2.659c0.371-0.839,0.742-1.723,1.119-2.658c2.799-3.918,5.221-8.02,7.275-12.313
		c1.492-2.239,2.982-4.478,4.479-6.716c1.49-2.239,2.982-4.661,4.477-7.276c0.932-2.422,1.912-4.709,2.939-6.856
		c1.021-2.143,2.098-4.149,3.217-6.017l2.24-4.198c0.93-1.679,1.49-2.702,1.678-3.078c0.744-0.931,0.932-2.143,0.561-3.638
		c-0.188-1.303-0.188-2.519,0-3.638l2.799-3.638c0.742-0.932,1.678-2.143,2.797-3.638c1.119-1.119,2.051-2.143,2.799-3.078
		c1.119-1.303,2.611-1.399,4.479-0.28c1.861-1.863,4.477-3.542,7.834-5.037c1.492,0.188,2.799,0.839,3.918,1.958
		c0.932,0.748,2.051,1.587,3.359,2.519c0.742,1.867,1.303,3.917,1.678,6.156c0.373,2.239-0.375,3.918-2.238,5.037
		c3.357,1.867,5.598,4.294,6.717,7.276c1.119,2.986,1.863,6.716,2.238,11.194c0,3.734-0.096,6.437-0.279,8.115
		c-0.188,2.427,0.092,5.133,0.84,8.116c-1.309,2.615-2.799,4.757-4.479,6.436c-1.68,1.679-2.986,4.198-3.918,7.556
		c-3.545,8.396-7.555,15.671-12.033,21.828c-4.854,6.533-9.422,13.433-13.711,20.708c-4.107,3.734-7.373,8.303-9.795,13.712
		c-2.428,5.413-4.758,11.102-6.996,17.07c-7.465,12.313-14.648,24.814-21.549,37.499c-6.904,12.689-13.527,25.562-19.869,38.618
		l15.951,3.358c5.41,1.119,10.355,2.798,14.832,5.037c1.863,2.798,3.262,4.385,4.197,4.758c0.932,0.375,1.023,1.027,0.281,1.959
		c1.49,11.01-1.119,14.738-7.836,11.193c-2.615,0.936-4.666,0.936-6.156,0c-5.973,1.494-11.57,2.615-16.791,3.357
		c-5.225,0.748-11.193,1.496-17.91,2.238l-6.717,13.992c-1.119,2.24-2.238,4.525-3.357,6.857c-1.119,2.334-2.238,4.713-3.357,7.135
		c-11.194,19.777-21.365,39.646-30.503,59.607c-9.143,19.965-17.63,40.576-25.465,61.844c-0.748,3.359-1.496,6.533-2.239,9.516
		c-0.748,2.986-1.867,5.785-3.358,8.395c-0.748,4.479-1.867,8.396-3.358,11.754c-0.936,2.055-1.496,3.822-1.679,5.316
		c-0.188,1.492-0.748,3.262-1.679,5.318c-1.12,2.98-2.707,5.221-4.757,6.715c-2.055,1.492-3.638,3.543-4.757,6.156
		c-2.239-2.238-4.014-2.334-5.317-0.279c-1.308,2.051-2.335,4.01-3.079,5.877c-4.105,0.744-6.996-0.188-8.675-2.799
		c-1.679-2.615-2.519-5.412-2.519-8.395c-1.496-2.055-3.267-2.895-5.317-2.52c-1.867,0.184-3.826-0.656-5.876-2.518
		c-2.986-10.818-5.785-19.59-8.395-26.305c-2.615-6.717-5.414-13.057-8.396-19.029c-0.376-1.492-0.748-2.891-1.119-4.199
		c-0.376-1.303-0.748-2.609-1.12-3.916c-0.376-1.305-0.748-2.563-1.119-3.779c-0.376-1.211-0.748-2.471-1.12-3.777l-2.519-5.598
		c-0.376-0.93-0.796-1.861-1.259-2.797c-0.468-0.932-0.888-1.863-1.259-2.799c-0.748-0.932-1.119-2.051-1.119-3.359
		c0-1.303-0.376-2.422-1.12-3.357c-0.936-2.051-1.959-4.102-3.078-6.156c-1.12-2.051-2.335-4.102-3.638-6.156l-7.276-11.754
		c-2.615-3.17-4.477-5.969-5.597-8.395c-0.936-2.238-2.239-3.918-3.918-5.037c-2.239-4.479-3.358-7.18-3.358-8.115
		c0-0.932-0.376-1.771-1.119-2.52l-5.597-6.717c-1.119-1.303-2.427-2.422-3.917-3.357c-1.679-0.932-3.734-1.863-6.157-2.799
		c-2.427-0.932-4.478-1.861-6.157-2.797l-5.876-2.52c-0.936-0.371-2.007-0.791-3.218-1.26c-1.215-0.463-2.475-0.883-3.778-1.26
		c-3.358,6.904-6.156,13.992-8.395,21.27c-2.239,7.463-5.597,14.18-10.074,20.148c-2.055,4.854-4.574,9.982-7.556,15.391
		c-2.986,5.414-5.505,10.543-7.556,15.391c-0.003,0.004-0.007,0.01-0.01,0.014c47.772,82.647,137.102,138.262,239.426,138.262
		c152.629,0,276.359-123.729,276.359-276.356c0-25.597-3.496-50.374-10.008-73.898C564.413,229.597,562.343,233.009,560.101,236.317
		z"/>
	<linearGradient id="SVGID_2_" gradientUnits="userSpaceOnUse" x1="243.4556" y1="408.082" x2="119.798" y2="317.7726">
		<stop  offset="0" style="stop-color:#2A52F0"/>
		<stop  offset="0.2173" style="stop-color:#2A69F0"/>
		<stop  offset="0.4992" style="stop-color:#2A80F0"/>
		<stop  offset="0.766" style="stop-color:#2A8DF0"/>
		<stop  offset="1" style="stop-color:#2A92F0"/>
	</linearGradient>
	<path fill="url(#SVGID_2_)" d="M240.801,359.168c2.239-4.662,4.429-9.418,6.576-14.271c2.143-4.85,4.241-9.795,6.296-14.832
		c-2.798-0.184-5.505-0.744-8.115-1.68c-1.308-0.371-2.615-0.742-3.918-1.119c-1.307-0.371-2.707-0.744-4.197-1.119
		c-1.496-0.371-2.707-0.463-3.638-0.279c-0.936,0.188-2.147,0.096-3.638-0.281c-2.615,0-5.226-0.559-7.836-1.678
		c-8.395-0.373-16.139,0-23.227,1.119c-8.024,1.119-14.832,1.307-20.429,0.559c-5.037,0.748-10.074,1.447-15.111,2.1
		c-5.037,0.656-10.17,1.168-15.391,1.539c-10.075,0.748-20.057,2.146-29.943,4.197c-4.666,0.936-8.771,2.055-12.313,3.357
		c-0.748,1.309-1.307,2.707-1.679,4.199c-0.188,1.119-0.748,2.705-1.679,4.756c2.61,2.986,5.409,5.834,8.395,8.535
		c2.982,2.707,6.157,5.273,9.515,7.697c4.849,5.973,9.794,11.568,14.832,16.789c5.037,5.227,10.166,10.451,15.392,15.672
		c2.982,1.867,5.037,4.666,6.156,8.395c2.051,1.867,3.822,4.105,5.317,6.717c0.744,1.307,1.491,2.615,2.239,3.918
		c0.744,1.307,1.583,2.615,2.519,3.918c3.73,0.375,6.157,1.867,7.276,4.477c1.303,2.986,2.799,5.414,4.478,7.277
		c1.491,2.426,3.122,4.854,4.897,7.275c1.771,2.426,3.59,4.854,5.457,7.275c3.917,4.666,6.996,9.703,9.234,15.111
		c1.303,0.936,2.051,1.775,2.239,2.52c0.184,0.746,0.932,1.586,2.239,2.518l9.794-32.461c1.491-4.662,3.079-9.279,4.757-13.854
		c1.679-4.568,3.542-9.094,5.597-13.572c0.372-2.609,1.399-5.221,3.078-7.834c1.679-2.424,2.331-5.221,1.959-8.396
		c2.05-4.85,4.149-9.654,6.296-14.412C236.368,368.543,238.563,363.834,240.801,359.168z"/>
</g>
</svg>
